<?xml version="1.0" encoding="utf-8"?>
<!-- Generator: Adobe Illustrator 24.1.1, SVG Export Plug-In . SVG Version: 6.00 Build 0)  -->
<svg version="1.1" xmlns="http://www.w3.org/2000/svg" xmlns:xlink="http://www.w3.org/1999/xlink" x="0px" y="0px"
	 viewBox="0 0 993 659" style="enable-background:new 0 0 993 659;" xml:space="preserve">
<style type="text/css">
	.st0{fill:#ABABAB;}
	.st1{fill:#959595;}
	.st2{fill:#979797;}
	.st3{display:none;}
	.st4{display:inline;}
	.st5{fill:#B6AA90;}
	.st6{fill:#A0947A;}
	.st7{fill:#A2967B;}
	.st8{fill:#C2C2C2;}
	.st9{fill:#D5D5D5;}
	.st10{fill:#A3A3A3;}
	.st11{fill:#D5C67D;}
	.st12{fill:#E7D891;}
	.st13{fill:#B3A668;}
	.st14{fill:#E0E0E0;}
	.st15{fill:#BBBBBB;}
	.st16{fill:#D1D1D1;}
	.st17{fill:#EAE2BE;}
	.st18{fill:#C3BC9C;}
	.st19{fill:#DBD3AF;}
	.st20{fill:#AEAEAE;}
	.st21{fill:#929292;}
	.st22{fill:#A1A1A1;}
	.st23{fill:#EFA435;}
	.st24{fill:#CB8929;}
	.st25{fill:#E0982A;}
	.st26{opacity:0.61;}
	.st27{opacity:0.47;fill:#A6A6A6;enable-background:new    ;}
	.st28{opacity:0.4;fill:#A6A6A6;enable-background:new    ;}
	.st29{display:inline;opacity:0.61;}
	.st30{opacity:0.47;fill:#BAA478;enable-background:new    ;}
	.st31{opacity:0.4;fill:#BAA478;enable-background:new    ;}
	.st32{fill:#FFFFFF;}
	.st33{fill:none;}
	.st34{font-family:'Arial';}
	.st35{font-size:30px;}
	.st36{fill:none;stroke:#000000;stroke-width:3;stroke-miterlimit:10;}
	.st37{display:inline;fill:none;stroke:#000000;stroke-width:2;stroke-miterlimit:10;}
	.st38{display:inline;fill:none;stroke:#000000;stroke-width:3;stroke-miterlimit:10;}
</style>
<g id="A_x5F_BN">
	<g id="Layer_3_1_">
		<path class="st0" d="M932.9,373.3c-114.2,75.2-228.5,150.4-342.7,225.6c-51.7-25.5-103.4-51-155-76.5
			c118.2-66.9,236.3-133.8,354.5-200.7C837.4,338.9,885.1,356.1,932.9,373.3z"/>
		<path class="st1" d="M930.3,408.1c-113.8,75.4-227.6,150.7-341.5,226.1c0.4-11.8,0.9-23.5,1.3-35.3
			c114.2-75.2,228.3-150.3,342.5-225.5C931.8,385,931.1,396.6,930.3,408.1z"/>
		<path class="st2" d="M56.7,337.4c178.1,87.1,356.1,174.2,534.2,261.3c-0.6,11.8-1.2,23.7-1.8,35.5c-177-88.1-354-176.2-531-264.3
			C57.6,359,57.2,348.2,56.7,337.4z"/>
	</g>
</g>
<g id="A_1_" class="st3">
	<g id="Layer_3" class="st4">
		<path class="st5" d="M932.9,373.3c-114.2,75.2-228.5,150.4-342.7,225.6c-51.7-25.5-103.4-51-155-76.5
			c118.2-66.9,236.3-133.8,354.5-200.7C837.4,338.9,885.1,356.1,932.9,373.3z"/>
		<path class="st6" d="M930.3,408.1c-113.8,75.4-227.6,150.7-341.5,226.1c0.4-11.8,0.9-23.5,1.3-35.3
			c114.2-75.2,228.3-150.3,342.5-225.5C931.8,385,931.1,396.6,930.3,408.1z"/>
		<path class="st7" d="M56.7,337.4c178.1,87.1,356.1,174.2,534.2,261.3c-0.6,11.8-1.2,23.7-1.8,35.5c-177-88.1-354-176.2-531-264.3
			C57.6,359,57.2,348.2,56.7,337.4z"/>
	</g>
</g>
<g id="B_x5F_BN">
	<g id="Layer_4_1_">
		<path class="st8" d="M435.9,522.9C309.5,461,183.1,399.2,56.7,337.4c-0.4-7.9-0.7-15.8-1.1-23.7
			c127.1,59.2,254.2,118.5,381.3,177.7C436.6,501.9,436.2,512.4,435.9,522.9z"/>
		<path class="st9" d="M790.2,300.7c-117.8,63.6-235.5,127.1-353.3,190.7c-20.7-9.7-41.5-19.3-62.2-29
			c119.1-60.9,238.1-121.8,357.2-182.8C751.3,286.7,770.7,293.7,790.2,300.7z"/>
		<path class="st10" d="M789.6,321.7C671.8,388.6,554,455.4,436.1,522.3c0.3-10.3,0.5-20.6,0.8-30.9
			c117.8-63.6,235.5-127.1,353.3-190.7C790,307.7,789.8,314.7,789.6,321.7z"/>
	</g>
</g>
<g id="B_1_" class="st3">
	<g id="Layer_4" class="st4">
		<path class="st11" d="M435.9,522.9C309.5,461,183.1,399.2,56.7,337.4c-0.4-7.9-0.7-15.8-1.1-23.7
			c127.1,59.2,254.2,118.5,381.3,177.7C436.6,501.9,436.2,512.4,435.9,522.9z"/>
		<path class="st12" d="M790.2,300.7c-117.8,63.6-235.5,127.1-353.3,190.7c-20.7-9.7-41.5-19.3-62.2-29
			c119.1-60.9,238.1-121.8,357.2-182.8C751.3,286.7,770.7,293.7,790.2,300.7z"/>
		<path class="st13" d="M789.6,321.7C671.8,388.6,554,455.4,436.1,522.3c0.3-10.3,0.5-20.6,0.8-30.9
			c117.8-63.6,235.5-127.1,353.3-190.7C790,307.7,789.8,314.7,789.6,321.7z"/>
	</g>
</g>
<g id="C_x5F_BN">
	<g id="Layer_5_1_">
		<path class="st14" d="M734,256.8C614.5,316.2,495,375.6,375.4,435c-15.2-6.6-30.4-13.3-45.6-20c120.6-57.3,241.3-114.6,361.9-172
			C705.8,247.6,719.9,252.2,734,256.8z"/>
		<path class="st15" d="M733,279.4c-119.4,61-238.9,122-358.3,183c0.2-9.1,0.5-18.3,0.7-27.4c119.5-59.3,238.9-118.7,358.4-178
			C733.5,264.5,733.3,271.9,733,279.4z"/>
		<path class="st16" d="M54.4,288.6c107,48.8,214,97.6,321,146.4c-0.2,9.1-0.5,18.3-0.7,27.4C268.3,412.8,162,363.2,55.6,313.7
			C55.2,305.3,54.8,296.9,54.4,288.6z"/>
	</g>
</g>
<g id="C_1_">
	<g id="Layer_5">
		<path class="st17" d="M734,256.8C614.5,316.2,495,375.6,375.4,435c-15.2-6.6-30.4-13.3-45.6-20c120.6-57.3,241.3-114.6,361.9-172
			C705.8,247.6,719.9,252.2,734,256.8z"/>
		<path class="st18" d="M733,279.4c-119.4,61-238.9,122-358.3,183c0.2-9.1,0.5-18.3,0.7-27.4c119.5-59.3,238.9-118.7,358.4-178
			C733.5,264.5,733.3,271.9,733,279.4z"/>
		<path class="st19" d="M54.4,288.6c107,48.8,214,97.6,321,146.4c-0.2,9.1-0.5,18.3-0.7,27.4C268.3,412.8,162,363.2,55.6,313.7
			C55.2,305.3,54.8,296.9,54.4,288.6z"/>
	</g>
</g>
<g id="D_x5F_BN">
	<g id="Layer_6_1_">
		<path class="st20" d="M691.8,217.3c-121.1,56.1-242.3,112.2-363.4,168.3c-91.9-40.2-183.9-80.5-275.8-120.7
			c121.4-44.7,242.7-89.4,364-134C508.4,159.6,600.1,188.5,691.8,217.3z"/>
		<path class="st21" d="M691.7,243.1c-120.3,57.2-240.7,114.4-361,171.6c-0.8-9.7-1.6-19.4-2.3-29.1
			c121.1-56.1,242.3-112.2,363.4-168.3C691.8,225.9,691.8,234.5,691.7,243.1z"/>
		<path class="st22" d="M52.6,264.8c91.9,40.2,183.9,80.5,275.8,120.7c0.8,9.7,1.6,19.4,2.3,29.1c-92.1-42-184.3-84-276.4-126.1
			C53.8,280.7,53.2,272.7,52.6,264.8z"/>
	</g>
</g>
<g id="D_1_" class="st3">
	<g id="Layer_6" class="st4">
		<path class="st23" d="M691.8,217.3c-121.1,56.1-242.3,112.2-363.4,168.3c-91.9-40.2-183.9-80.5-275.8-120.7
			c121.4-44.7,242.7-89.4,364-134C508.4,159.6,600.1,188.5,691.8,217.3z"/>
		<path class="st24" d="M691.7,243.1c-120.3,57.2-240.7,114.4-361,171.6c-0.8-9.7-1.6-19.4-2.3-29.1
			c121.1-56.1,242.3-112.2,363.4-168.3C691.8,225.9,691.8,234.5,691.7,243.1z"/>
		<path class="st25" d="M52.6,264.8c91.9,40.2,183.9,80.5,275.8,120.7c0.8,9.7,1.6,19.4,2.3,29.1c-92.1-42-184.3-84-276.4-126.1
			C53.8,280.7,53.2,272.7,52.6,264.8z"/>
	</g>
</g>
<g id="E_x5F_BN">
	<g id="Layer_7_1_" class="st26">
		<path class="st27" d="M285,336.9c121.3-52.4,242.7-104.7,364-157.1c0,8.1-0.1,16.3-0.1,24.5c-121.6,53.9-243.2,107.9-364.8,161.8
			C284.4,356.4,284.7,346.7,285,336.9z"/>
		<path class="st28" d="M649.4,179.9c-121.5,52.3-242.9,104.7-364.4,157C206.7,303.4,128.5,270,50.2,236.5
			c122.6-42.6,245.2-85.2,367.8-127.8C495.1,132.4,572.3,156.2,649.4,179.9z"/>
		<path class="st27" d="M50.2,236.5C128.5,270,206.7,303.4,285,336.9c-0.3,9.7-0.6,19.5-0.9,29.2C207,332.3,129.8,298.6,52.7,264.8
			C51.8,255.4,51,246,50.2,236.5z"/>
		<path class="st27" d="M418,108.7c77,23.7,154,47.4,231,71.1c0,8-0.1,16-0.1,24c-77.4-24.3-154.8-48.6-232.2-73
			C417.1,123.4,417.6,116.1,418,108.7z"/>
	</g>
</g>
<g id="E_1_" class="st3">
	<g id="Layer_7" class="st29">
		<path class="st30" d="M285,336.9c121.3-52.4,242.7-104.7,364-157.1c0,8.1-0.1,16.3-0.1,24.5c-121.6,53.9-243.2,107.9-364.8,161.8
			C284.4,356.4,284.7,346.7,285,336.9z"/>
		<path class="st31" d="M649.4,179.9c-121.5,52.3-242.9,104.7-364.4,157C206.7,303.4,128.5,270,50.2,236.5
			c122.6-42.6,245.2-85.2,367.8-127.8C495.1,132.4,572.3,156.2,649.4,179.9z"/>
		<path class="st30" d="M50.2,236.5C128.5,270,206.7,303.4,285,336.9c-0.3,9.7-0.6,19.5-0.9,29.2C207,332.3,129.8,298.6,52.7,264.8
			C51.8,255.4,51,246,50.2,236.5z"/>
		<path class="st30" d="M418,108.7c77,23.7,154,47.4,231,71.1c0,8-0.1,16-0.1,24c-77.4-24.3-154.8-48.6-232.2-73
			C417.1,123.4,417.6,116.1,418,108.7z"/>
	</g>
</g>
<g id="Layer_1">
	<g id="Layer_1_1_">
		<g id="Layer_2_1_">
			
				<rect x="21" y="209.2" transform="matrix(0.9993 -3.630297e-02 3.630297e-02 0.9993 -10.7275 1.5747)" class="st32" width="34" height="174"/>
			<rect x="901.5" y="263.2" class="st33" width="21" height="20"/>
			<rect x="316.5" y="548.2" class="st33" width="21" height="20"/>
			<rect x="749.5" y="148.2" class="st33" width="21" height="20"/>
			<rect x="186" y="480.3" class="st33" width="21" height="20"/>
			<rect x="590.5" y="37.2" class="st33" width="21" height="20"/>
		</g>
	</g>
	<g id="C">
		<text transform="matrix(1 0 0 1 749.5 164.1836)" class="st34 st35">C</text>
		<line class="st36" x1="701" y1="256" x2="751.7" y2="172.4"/>
	</g>
	<g id="D" class="st3">
		<text transform="matrix(1 0 0 1 186 496.3075)" class="st4 st34 st35">D</text>
		<line class="st37" x1="220" y1="473" x2="327" y2="357.2"/>
	</g>
	<g id="E" class="st3">
		<text transform="matrix(1 0 0 1 590.5 53.1836)" class="st4 st34 st35">E</text>
		<line class="st38" x1="528.6" y1="157" x2="579.4" y2="73.3"/>
	</g>
	<g id="A" class="st3">
		<line class="st38" x1="810" y1="340" x2="891" y2="286"/>
		<text transform="matrix(1 0 0 1 901.5 279.1836)" class="st4 st34 st35">A</text>
	</g>
	<g id="B" class="st3">
		<text transform="matrix(1 0 0 1 316.5 564.1836)" class="st4 st34 st35">B</text>
		<line class="st37" x1="346" y1="547" x2="439" y2="453"/>
	</g>
</g>
</svg>
