<?xml version="1.0" encoding="utf-8"?>
<!-- Generator: Adobe Illustrator 24.1.1, SVG Export Plug-In . SVG Version: 6.00 Build 0)  -->
<svg version="1.1" xmlns="http://www.w3.org/2000/svg" xmlns:xlink="http://www.w3.org/1999/xlink" x="0px" y="0px"
	 viewBox="0 0 993 659" style="enable-background:new 0 0 993 659;" xml:space="preserve">
<style type="text/css">
	.st0{fill:#A5A5A5;}
	.st1{fill:#8C8C8C;}
	.st2{fill:#989898;}
	.st3{fill:#C1C1C1;}
	.st4{fill:#D0D0D0;}
	.st5{fill:#A9A9A9;}
	.st6{fill:#E4E4E4;}
	.st7{fill:#BABABA;}
	.st8{fill:#D1D1D1;}
	.st9{fill:#EFA435;}
	.st10{fill:#CB8929;}
	.st11{fill:#E0982A;}
	.st12{opacity:0.47;fill:#BCB9B5;enable-background:new    ;}
	.st13{opacity:0.4;fill:#D3CEC7;enable-background:new    ;}
	.st14{opacity:0.47;fill:#BAB7B3;enable-background:new    ;}
	.st15{fill:#FFFFFF;}
	.st16{fill:none;}
	.st17{display:none;}
	.st18{display:inline;}
	.st19{font-family:'Arial';}
	.st20{font-size:30px;}
	.st21{display:inline;fill:none;stroke:#000000;stroke-width:3;stroke-miterlimit:10;}
	.st22{fill:none;stroke:#000000;stroke-width:2;stroke-miterlimit:10;}
	.st23{display:inline;fill:none;stroke:#000000;stroke-width:2;stroke-miterlimit:10;}
</style>
<g id="Layer_1">
	<g id="Layer_3">
		<path class="st0" d="M932.9,372.1c-114.2,75.2-228.5,150.4-342.7,225.6c-51.7-25.5-103.4-51-155-76.5
			c118.2-66.9,236.3-133.8,354.5-200.7C837.4,337.7,885.1,354.9,932.9,372.1z"/>
		<path class="st1" d="M930.3,406.9C816.5,482.3,702.7,557.6,588.8,633c0.4-11.8,0.9-23.5,1.3-35.3
			c114.2-75.2,228.3-150.3,342.5-225.5C931.8,383.8,931.1,395.4,930.3,406.9z"/>
		<path class="st2" d="M56.7,336.2c178.1,87.1,356.1,174.2,534.2,261.3c-0.6,11.8-1.2,23.7-1.8,35.5c-177-88.1-354-176.2-531-264.3
			C57.6,357.8,57.2,347,56.7,336.2z"/>
	</g>
	<g id="Layer_4">
		<path class="st3" d="M435.9,521.7C309.5,459.8,183.1,398,56.7,336.2c-0.4-7.9-0.7-15.8-1.1-23.7
			C182.7,371.7,309.8,431,436.9,490.2C436.6,500.7,436.2,511.2,435.9,521.7z"/>
		<path class="st4" d="M790.2,299.5c-117.8,63.6-235.5,127.1-353.3,190.7c-20.7-9.7-41.5-19.3-62.2-29
			c119.1-60.9,238.1-121.8,357.2-182.8C751.3,285.5,770.7,292.5,790.2,299.5z"/>
		<path class="st5" d="M789.6,320.5C671.8,387.4,554,454.2,436.1,521.1c0.3-10.3,0.5-20.6,0.8-30.9
			c117.8-63.6,235.5-127.1,353.3-190.7C790,306.5,789.8,313.5,789.6,320.5z"/>
	</g>
	<g id="Layer_5">
		<path class="st6" d="M734,255.6C614.5,315,495,374.4,375.4,433.8c-15.2-6.6-30.4-13.3-45.6-20c120.6-57.3,241.3-114.6,361.9-172
			C705.8,246.4,719.9,251,734,255.6z"/>
		<path class="st7" d="M733,278.2c-119.4,61-238.9,122-358.3,183c0.2-9.1,0.5-18.3,0.7-27.4c119.5-59.3,238.9-118.7,358.4-178
			C733.5,263.3,733.3,270.7,733,278.2z"/>
		<path class="st8" d="M54.4,287.4c107,48.8,214,97.6,321,146.4c-0.2,9.1-0.5,18.3-0.7,27.4C268.3,411.6,162,362,55.6,312.5
			C55.2,304.1,54.8,295.7,54.4,287.4z"/>
	</g>
	<g id="Layer_6">
		<path class="st9" d="M691.8,216.1c-121.1,56.1-242.3,112.2-363.4,168.3c-91.9-40.2-183.9-80.5-275.8-120.7
			c121.4-44.7,242.7-89.4,364-134C508.4,158.4,600.1,187.3,691.8,216.1z"/>
		<path class="st10" d="M691.7,241.9c-120.3,57.2-240.7,114.4-361,171.6c-0.8-9.7-1.6-19.4-2.3-29.1
			c121.1-56.1,242.3-112.2,363.4-168.3C691.8,224.7,691.8,233.3,691.7,241.9z"/>
		<path class="st11" d="M52.6,263.6c91.9,40.2,183.9,80.5,275.8,120.7c0.8,9.7,1.6,19.4,2.3,29.1c-92.1-42-184.3-84-276.4-126.1
			C53.8,279.5,53.2,271.5,52.6,263.6z"/>
	</g>
	<g id="Layer_7">
		<path class="st12" d="M285,335.7C406.3,283.3,527.7,231,649,178.6c0,8.1-0.1,16.3-0.1,24.5C527.3,257,405.7,311,284.1,364.9
			C284.4,355.2,284.7,345.5,285,335.7z"/>
		<path class="st13" d="M649.4,178.7C527.9,231,406.5,283.4,285,335.7c-78.3-33.5-156.5-66.9-234.8-100.4
			c122.6-42.6,245.2-85.2,367.8-127.8C495.1,131.2,572.3,155,649.4,178.7z"/>
		<path class="st14" d="M50.2,235.3c78.3,33.5,156.5,66.9,234.8,100.4c-0.3,9.7-0.6,19.5-0.9,29.2
			c-77.1-33.8-154.3-67.5-231.4-101.3C51.8,254.2,51,244.8,50.2,235.3z"/>
		<path class="st14" d="M418,107.5c77,23.7,154,47.4,231,71.1c0,8-0.1,16-0.1,24c-77.4-24.3-154.8-48.6-232.2-73
			C417.1,122.2,417.6,114.9,418,107.5z"/>
	</g>
	<g id="Layer_2_1_">
		
			<rect x="21" y="208" transform="matrix(0.9993 -3.630149e-02 3.630149e-02 0.9993 -10.6834 1.5743)" class="st15" width="34" height="174"/>
		<rect x="901.5" y="262" class="st16" width="21" height="20"/>
		<rect x="316.5" y="547" class="st16" width="21" height="20"/>
		<rect x="749.5" y="147" class="st16" width="21" height="20"/>
		<rect x="186" y="479.1" class="st16" width="21" height="20"/>
		<rect x="590.5" y="36" class="st16" width="21" height="20"/>
	</g>
</g>
<g id="C" class="st17">
	<text transform="matrix(1 0 0 1 749.5 164.1836)" class="st18 st19 st20">C</text>
	<line class="st21" x1="701" y1="256" x2="751.7" y2="172.4"/>
</g>
<g id="D">
	<text transform="matrix(1 0 0 1 186 496.3075)" class="st19 st20">D</text>
	<line class="st22" x1="220" y1="473" x2="327" y2="357.2"/>
</g>
<g id="E" class="st17">
	<text transform="matrix(1 0 0 1 590.5 53.1836)" class="st18 st19 st20">E</text>
	<line class="st21" x1="528.6" y1="157" x2="579.4" y2="73.3"/>
</g>
<g id="A" class="st17">
	<line class="st21" x1="810" y1="340" x2="891" y2="286"/>
	<text transform="matrix(1 0 0 1 901.5 279.1836)" class="st18 st19 st20">A</text>
</g>
<g id="B" class="st17">
	<text transform="matrix(1 0 0 1 316.5 564.1836)" class="st18 st19 st20">B</text>
	<line class="st23" x1="346" y1="547" x2="439" y2="453"/>
</g>
</svg>
