<?xml version="1.0" encoding="utf-8"?>
<!-- Generator: Adobe Illustrator 24.1.1, SVG Export Plug-In . SVG Version: 6.00 Build 0)  -->
<svg version="1.1" xmlns="http://www.w3.org/2000/svg" xmlns:xlink="http://www.w3.org/1999/xlink" x="0px" y="0px"
	 viewBox="0 0 435.24 238.65" style="enable-background:new 0 0 435.24 238.65;" xml:space="preserve">
<style type="text/css">
	.st0{opacity:0.65;fill:#559367;}
	.st1{fill:none;}
	.st2{font-family:'ArialMT';}
	.st3{font-size:10px;}
	.st4{fill:none;stroke:#4C4C4C;stroke-miterlimit:10;}
	.st5{opacity:0.68;fill:#559367;}
	.st6{display:none;}
	.st7{display:inline;opacity:0.69;fill:#F4C87A;}
	.st8{display:inline;opacity:0.69;fill:#70B4E3;}
	.st9{display:inline;fill:none;}
	.st10{display:inline;}
	.st11{display:inline;fill:none;stroke:#4C4C4C;stroke-miterlimit:10;}
	.st12{fill:none;stroke:#000000;stroke-miterlimit:10;}
	.st13{fill:none;stroke:#4C4C4C;stroke-width:0.75;stroke-miterlimit:10;}
	.st14{fill:none;stroke:#4C4C4C;stroke-width:0.5;stroke-miterlimit:10;}
</style>
<g id="Corte_tangencial">
	<path class="st0" d="M420.4,155.74c-11.33,8.78-22.65,17.57-33.98,26.35c0-35.48,0-70.97,0-106.45
		c11.33-9.39,22.65-18.78,33.98-28.17C420.4,83.56,420.4,119.65,420.4,155.74z"/>
	<rect x="239.63" y="116.13" class="st1" width="90.07" height="17.26"/>
	<text transform="matrix(1 0 0 1 239.6327 123.2859)" class="st2 st3">Corte tangencial</text>
	<line class="st4" x1="323.33" y1="119.22" x2="395.6" y2="119.22"/>
	<line class="st4" x1="185.13" y1="120.9" x2="226.91" y2="120.9"/>
	<path class="st5" d="M208.73,149.81c-15.73,14.06-31.47,28.13-47.2,42.19c0-23.1,0-46.2,0-69.3c15.73-14.06,31.47-28.13,47.2-42.19
		C208.73,103.61,208.73,126.71,208.73,149.81z"/>
</g>
<g id="Corte_radial" class="st6">
	<path class="st7" d="M386.43,182.09c-8.63-7.03-17.26-14.07-25.89-21.1c0-35.48,0-70.97,0-106.45c8.63,7.03,17.26,14.07,25.89,21.1
		C386.43,111.12,386.43,146.61,386.43,182.09z"/>
	<path class="st7" d="M161.53,192c-15.28-13.83-30.56-27.65-45.84-41.48c0-20.87,0-41.74,0-62.61
		c15.28,11.6,30.56,23.19,45.84,34.79C161.53,145.8,161.53,168.9,161.53,192z"/>
	<path class="st7" d="M75.64,209.35c13.35-19.61,26.7-39.22,40.04-58.82c0-20.87,0-41.74,0-62.61
		c-13.43,18.91-26.86,37.81-40.29,56.72C75.48,166.2,75.56,187.78,75.64,209.35z"/>
	<path class="st8" d="M114.14,166.35"/>
	<rect x="250.01" y="184.72" class="st9" width="62.09" height="14.56"/>
	<text transform="matrix(1 0 0 1 250.0073 191.8787)" class="st10 st2 st3">Corte Radial</text>
	<line class="st11" x1="315.95" y1="184.06" x2="373.48" y2="165.81"/>
	<line class="st11" x1="148.35" y1="157" x2="227.43" y2="182.09"/>
</g>
<g id="Corte_transversal" class="st6">
	<line class="st11" x1="319.87" y1="31.33" x2="377.4" y2="49.58"/>
	<path class="st8" d="M115.69,87.91c-7.6,10.11-13.85,18.7-18.61,25.35c-1.81,2.54-10.02,14-13.75,19.72
		c-1.53,2.34-3.11,4.65-4.65,6.98c-0.72,1.09-1.59,2.09-2.22,3.24c-0.48,0.86-0.6,1.23-1.05,1.44c-0.91,0.43-1.91-0.37-3.8-1.34
		c-1.57-0.8-0.88-0.25-4.75-1.92c0,0-2.44-1.05-4.85-2.22c-4.87-2.37-11.1-6.09-13.04-7.38c-28.33-18.78-30.74-45-30.74-45
		c-1.43-15.53,5.13-28.34,6.67-31.35c2.93-5.72,6.91-10.76,7.28-11.23c3.71-4.66,7.25-7.87,9.3-9.6c1-0.85,3.73-3.1,7.93-5.78
		c15.17-9.64,30.49-14.04,30.49-14.04c4.01-1.15,16.77-4.57,34.25-4.23c7.11,0.14,44.84,1,71.89,24.63
		c9.66,8.43,16.15,19.27,18.5,24.75c2.1,4.88,3.44,11.52,3.78,13.19c0.08,0.39,0.19,1.68,0.4,4.25c0.11,1.3,0.18,2.33-0.4,3.34
		c-0.24,0.4-0.52,0.7-0.91,1.11c-0.87,0.92-1.68,1.45-1.92,1.62c-0.38,0.26-0.58,0.43-3.64,3.24c-3,2.75-4.49,4.13-6.47,5.97
		c-3.59,3.33-6.07,5.42-8.7,7.69c-3.94,3.41-11.1,9.72-25.15,22.38"/>
	<rect x="238.18" y="26.4" class="st9" width="85.75" height="21.03"/>
	<text transform="matrix(1 0 0 1 238.1761 33.558)" class="st10 st2 st3">Corte transversal</text>
	<line class="st11" x1="226.91" y1="31.33" x2="169.37" y2="49.58"/>
	<path class="st8" d="M394.52,26.36c-11.21,9.49-22.42,18.98-33.62,28.46l25.43,20.73c11.36-9.36,22.72-18.73,34.08-28.09
		C411.78,40.43,403.15,33.4,394.52,26.36z"/>
</g>
<g id="Dibujo_base">
	<path class="st12" d="M75.4,144.63c-33.59-10.81-57.05-35.45-57.05-64.13c0-38.64,42.62-69.97,95.19-69.97s95.19,31.33,95.19,69.97
		"/>
	<line class="st12" x1="115.69" y1="87.91" x2="115.69" y2="150.52"/>
	<line class="st12" x1="161.53" y1="122.7" x2="161.53" y2="192"/>
	<line class="st12" x1="75.64" y1="144.63" x2="75.64" y2="209.35"/>
	<line class="st12" x1="208.73" y1="80.13" x2="208.73" y2="149.81"/>
	<line class="st12" x1="18.35" y1="80.5" x2="18.35" y2="147.33"/>
	<path class="st12" d="M75.4,209.05c-33.59-10.81-57.05-35.45-57.05-64.13"/>
	<path class="st4" d="M111.89,93.25c-0.54-0.27-3.54-1.86-4.69-5.54c-0.16-0.5-1.18-3.98,0.84-7.44c1.65-2.83,4.78-4.67,8.04-4.63
		c5.55,0.07,9.29,5.55,9.3,9.3c0,1.02-0.27,2.14-0.42,2.77c-0.59,2.44-1.62,4.28-2.4,5.43"/>
	<line class="st4" x1="122.58" y1="93.14" x2="122.15" y2="156.37"/>
	<line class="st4" x1="111.55" y1="93.07" x2="111.11" y2="157.35"/>
	<line class="st13" x1="124.2" y1="95.09" x2="123.77" y2="158.32"/>
	<line class="st13" x1="125.83" y1="95.61" x2="125.39" y2="159.94"/>
	<line class="st13" x1="127.24" y1="96.8" x2="126.8" y2="161.13"/>
	<line class="st13" x1="128.85" y1="98.15" x2="128.41" y2="162.48"/>
	<line class="st13" x1="131.06" y1="99.63" x2="130.62" y2="163.96"/>
	<line class="st13" x1="133.57" y1="101.6" x2="133.13" y2="165.93"/>
	<line class="st13" x1="136.12" y1="103.41" x2="135.68" y2="168.61"/>
	<line class="st13" x1="138.83" y1="106.06" x2="138.38" y2="171.26"/>
	<line class="st13" x1="141.91" y1="107.83" x2="141.46" y2="173.84"/>
	<line class="st13" x1="145.51" y1="110.12" x2="145.05" y2="177.09"/>
	<line class="st13" x1="149.53" y1="112.96" x2="149.07" y2="180.73"/>
	<line class="st13" x1="153.75" y1="116.24" x2="153.28" y2="184.54"/>
	<line class="st13" x1="158.6" y1="120.3" x2="158.14" y2="188.6"/>
	<line class="st12" x1="161.53" y1="192" x2="115.69" y2="150.52"/>
	<line class="st12" x1="115.69" y1="87.91" x2="161.53" y2="122.7"/>
	<path class="st13" d="M77.12,140.76c-6.43-2.06-22.82-8.26-35.6-24.81c-3.69-4.78-15.53-20.13-14.56-37.48
		c1.84-32.88,48.95-60,89.08-60.4c0,0,38.13-0.38,68.13,26.69c3.06,2.76,8.42,7.69,12.67,15.91c5.12,9.88,5.9,19.22,5.93,24.54"/>
	<line class="st12" x1="420.4" y1="47.47" x2="420.4" y2="155.74"/>
	<line class="st12" x1="360.54" y1="54.54" x2="360.54" y2="160.99"/>
	<line class="st12" x1="420.4" y1="154.91" x2="386.43" y2="182.09"/>
	<line class="st13" x1="109.29" y1="96.49" x2="109.71" y2="159.3"/>
	<line class="st13" x1="107.67" y1="98.68" x2="108.1" y2="161.67"/>
	<line class="st13" x1="106.27" y1="101.17" x2="106.69" y2="163.74"/>
	<line class="st13" x1="104.66" y1="102.78" x2="105.09" y2="166.09"/>
	<line class="st13" x1="102.46" y1="105.8" x2="102.89" y2="169.32"/>
	<line class="st13" x1="99.96" y1="109.25" x2="100.4" y2="172.98"/>
	<line class="st13" x1="97.08" y1="113.26" x2="97.81" y2="176.79"/>
	<line class="st13" x1="94.73" y1="117.42" x2="95.16" y2="180.68"/>
	<line class="st13" x1="91.63" y1="120.92" x2="91.87" y2="185.5"/>
	<line class="st13" x1="88.08" y1="125.99" x2="88.52" y2="190.43"/>
	<line class="st13" x1="84.08" y1="131.84" x2="84.52" y2="196.31"/>
	<line class="st13" x1="79.88" y1="137.5" x2="80.32" y2="202.48"/>
	<line class="st12" x1="75.4" y1="144.63" x2="115.69" y2="87.91"/>
	<line class="st12" x1="75.64" y1="209.35" x2="115.69" y2="150.52"/>
	<path class="st13" d="M130.09,153.38"/>
	<path class="st13" d="M130.53,89.05"/>
	<line class="st13" x1="362.51" y1="56.15" x2="361.79" y2="162.01"/>
	<line class="st13" x1="365.06" y1="58.23" x2="364.34" y2="164.09"/>
	<line class="st13" x1="367.78" y1="59.51" x2="367.05" y2="166.3"/>
	<line class="st13" x1="370.85" y1="62.44" x2="370.13" y2="168.8"/>
	<line class="st13" x1="374.44" y1="66.22" x2="373.72" y2="171.73"/>
	<line class="st13" x1="378.47" y1="69.15" x2="377.74" y2="175.01"/>
	<line class="st13" x1="382.68" y1="72.59" x2="381.96" y2="178.45"/>
	<line class="st12" x1="386.43" y1="182.09" x2="360.54" y2="160.99"/>
	<path class="st13" d="M79.88,137.5c-26.52-11.21-46.02-32.26-46.27-54.25c-0.4-34.46,46.62-57.13,80.66-58.33
		c33.16-1.17,57.39,19.03,63.16,24.75c5.49,5.44,11.08,14.66,13.49,19.37c1.27,2.47,2.12,4.62,2.43,7.28
		c0.38,3.29-0.36,5.06-0.81,9.44c-0.23,2.21-0.42,5.41-0.16,9.36"/>
	<path class="st13" d="M83.76,132.87c-22.36-11.09-38.3-30.56-38.04-50.72C46.13,50,87.55,29.99,117.63,28.9
		c29.56-1.07,51.17,17.37,56.31,22.59c4.89,4.96,9.88,13.38,12.03,17.68c1.13,2.26,1.89,4.21,2.16,6.65c0.33,3-0.32,4.62-0.72,8.61
		c-0.41,4.03,0.65,5.31-0.14,8.55c-0.5,2.04-1.23,3.4-1.47,3.84c-1.41,2.51-3.22,3.9-4.04,4.58c-1.91,1.59-4.43,4.32-6.82,9.32"/>
	<path class="st13" d="M88.04,125.76c-4.78-1.53-16.97-6.14-26.48-18.45c-2.74-3.56-11.55-14.97-10.83-27.88
		c1.37-24.46,36.41-44.62,66.26-44.93c0,0,28.36-0.29,50.67,19.85c4.86,4.39,7.6,8.03,9.43,11.83c6.65,13.9,1.3,28.15,0.07,31.43
		c-4.94,13.16-14.7,20.2-18.56,22.68"/>
	<path class="st14" d="M110.18,94.65c-0.79-0.34-5.23-2.34-6.92-6.96c-0.23-0.63-1.74-5,1.25-9.34c2.44-3.56,7.05-5.87,11.86-5.81
		c8.19,0.09,13.7,6.97,13.72,11.68c0.01,1.28-0.39,2.69-0.62,3.47c-0.87,3.07-2.4,5.37-3.54,6.82"/>
	<path class="st4" d="M386.43,138.67c1.15-4.4,4.74-7.71,7.25-11.52c8.08-12.28,4.46-28.79,9.8-42.43c1.37-3.49,3.33-6.8,4.01-10.48
		c0.89-4.79-0.47-9.68-1.82-14.37"/>
	<path class="st4" d="M412.38,160.99c-1.39-5.35,0.78-10.86,2.28-16.18c1.6-5.65,2.48-11.49,2.6-17.35
		c0.09-4.43-0.07-9.36,3.02-12.68"/>
	<path class="st4" d="M386.43,124.49c5.69-2.92,8.04-6.21,9.14-8.71c1.54-3.53,0.58-5.01,1.34-12.88c0.38-3.94,1.37-7.81,2.36-11.65
		c1.14-4.46,2.29-8.91,3.43-13.37c0.41-1.59,0.82-3.25,0.42-4.85c-0.27-1.09-0.64-1.79-1.06-2.63c-0.71-1.43-1.6-3.57-2.23-6.49"/>
	<line class="st12" x1="386.43" y1="75.64" x2="386.43" y2="182.09"/>
	<path class="st13" d="M161.93,164.15c1.07-1.89,3.24-2.78,4.69-4.38c1.72-1.9,2.26-4.61,2.71-7.17c2.47-14.04,4.58-28.15,6.32-42.3
		"/>
	<path class="st4" d="M180.41,175.01c-0.21-6.02,2.61-11.7,3.26-17.69c0.38-3.47,0.02-6.97,0.19-10.46
		c0.27-5.51,1.85-10.85,3.17-16.2c2.91-11.77,4.59-23.87,5.01-36.02"/>
	<path class="st13" d="M201.05,156.54c1.32-2.93,1.3-6.32,1.24-9.57c-0.24-14.44-0.61-28.88-1.11-43.32
		c-0.07-1.96-0.14-3.92,0.13-5.86c0.57-4.24,2.71-8.45,1.66-12.58"/>
	<line class="st12" x1="161.53" y1="192" x2="208.73" y2="149.81"/>
	<line class="st12" x1="161.53" y1="122.7" x2="208.73" y2="80.5"/>
	<path class="st13" d="M386.74,32.81c-0.75,3.17-2.36,8.19-6.11,13.3c-5.34,7.28-12.02,10.68-15.26,12.08"/>
	<path class="st13" d="M391.54,28.83c-0.58,3.73-2.33,11.56-8.35,19.25c-5.48,7-11.87,10.51-15.26,12.08"/>
	<path class="st13" d="M397.02,28.41c-0.95,4.57-3.46,13.49-10.72,22.05c-5.45,6.44-11.41,10.11-15.26,12.08"/>
	<path class="st13" d="M400.99,31.64c-1.24,4.87-4.19,13.73-11.64,22.25c-5.45,6.23-11.27,9.96-15.26,12.08"/>
	<path class="st13" d="M405,35.01c-1.24,4.87-4.19,13.73-11.64,22.25c-5.45,6.23-11.27,9.96-15.26,12.08"/>
	<path class="st13" d="M409.05,38.15c-1.33,5.03-4.37,13.76-11.64,22.25c-5.21,6.09-10.76,9.91-14.73,12.18"/>
	<path class="st13" d="M414.56,42.7c-0.79,2.19-1.82,4.57-3.18,7.05c-3.58,6.53-8.02,11.13-11.54,14.16"/>
	<path class="st13" d="M379.86,38.52c-1.32,2.13-2.93,4.44-4.89,6.79c-4.05,4.85-8.29,8.33-11.84,10.78"/>
	<line class="st12" x1="386.43" y1="75.64" x2="360.54" y2="54.54"/>
	<line class="st12" x1="394.52" y1="26.36" x2="360.54" y2="54.54"/>
	<line class="st12" x1="420.4" y1="47.47" x2="394.52" y2="26.36"/>
	<line class="st12" x1="420.4" y1="47.47" x2="386.43" y2="75.64"/>
</g>
</svg>
