<?xml version="1.0" encoding="utf-8"?>
<!-- Generator: Adobe Illustrator 24.1.1, SVG Export Plug-In . SVG Version: 6.00 Build 0)  -->
<svg version="1.1" xmlns="http://www.w3.org/2000/svg" xmlns:xlink="http://www.w3.org/1999/xlink" x="0px" y="0px"
	 viewBox="0 0 473.39 208.18" style="enable-background:new 0 0 473.39 208.18;" xml:space="preserve">
<style type="text/css">
	.st0{display:none;}
	.st1{display:inline;opacity:0.9;fill:#206BEF;}
	.st2{display:inline;fill:#206BEF;}
	.st3{display:inline;opacity:0.9;fill:#6CCCDE;}
	.st4{opacity:0.9;fill:#6CCCDE;}
	.st5{display:inline;opacity:0.9;fill:#F37048;}
	.st6{display:inline;opacity:0.9;fill:#B6CC58;}
	.st7{display:inline;opacity:0.9;fill:#FDBA54;}
	.st8{display:inline;opacity:0.9;fill:#F9E35F;}
	.st9{display:inline;opacity:0.9;fill:#6356AF;}
	.st10{display:inline;opacity:0.9;fill:#2F9B86;}
	.st11{fill:none;stroke:#000000;stroke-miterlimit:10;}
	.st12{fill:none;}
</style>
<g id="Sala_17" class="st0">
	<rect x="118.05" y="73.84" class="st1" width="62.6" height="84.67"/>
</g>
<g id="Sala_16" class="st0">
	<rect x="117.96" y="159.04" class="st1" width="91.96" height="30.08"/>
</g>
<g id="Sala_15" class="st0">
	<rect x="87.21" y="131.69" class="st1" width="30.74" height="69.84"/>
</g>
<g id="Sala_14" class="st0">
	<path class="st2" d="M87.08,73.91c-0.26,0.28-0.68,0.24-1.48,0.2c-0.76-0.04-1.53,0.02-2.29-0.07c-1.11-0.12-2.81-0.1-6.2-0.07
		c-0.72,0.01-1.25,0.01-2.07-0.02c-0.91-0.03-1.24-0.08-2.58-0.05c-1.53,0.04-4.53,0.12-8.16,0.88c-2.36,0.49-5.56,1.38-9.17,3.1
		c0,0-5.86,2.76-10.52,7.01c-6.32,5.77-11.93,15.93-12.81,27.51c-1.42,18.79,10.17,34.62,20.63,40.72c4.66,2.72,9.17,3.91,9.17,3.91
		c4.31,1.44,8.59,1.17,16.99,1.21c2.9,0.02,4.35,0.02,4.84-0.05c0.81-0.12,1.63-0.03,2.44-0.08c0.47-0.03,0.86-0.07,1.15,0.19
		c0.34,0.3,0.32,0.82,0.3,1.37c-0.02,0.91,0.1,1.83,0,2.73c-0.06,0.49,0.01,0.13,0,4.35c-0.01,3.57-0.05,3.39-0.05,6.12
		c0,2.76,0.04,2.59,0.05,6.22c0,0,0,0,0,4.35c0,1.75,0,2.63,0,2.63c0.02,0.54-0.01,1.08,0,1.62c0.02,0.76,0.05,0.97-0.1,1.16
		c-0.28,0.35-0.84,0.26-1.77,0.2c-0.89-0.05-1.79,0.03-2.68,0c-0.99-0.03-1.98-0.03-2.97-0.05c-3.54-0.09-8.61,0.09-12.13,0
		c0,0-5.25-0.13-10.48-1.16c-1.69-0.33-10.21-2.1-19.45-8.28c-7.37-4.92-11.64-10.27-14.83-14.33c-2.65-3.37-6.81-9.24-10.25-17.22
		c-1.39-3.23-6.54-15.8-6.34-33.17c0.04-3.47,0.78-33.39,19.77-53.87c6.87-7.4,14.39-11.7,15.29-12.2c2.74-1.54,8.33-4.62,16.18-6.2
		c4.62-0.93,8.81-1.1,11.73-1.21c5.23-0.21,8.55,0.04,12-0.13c0.97-0.05,1.93,0.06,2.9,0.03c1.51-0.04,2.47-0.17,2.83,0.37
		c0.07,0.11,0.09,0.19,0.13,1.08c0.07,1.32,0.07,1.69,0.07,1.69c0,1.27,0.01,1.9,0,2.97c0,0.72,0,1.44,0,2.16c0,2.29,0,4.58,0,6.88
		c0,1.66,0,3.33,0,4.99c0,1.96,0,3.91,0,5.87c0,2.11,0,3.17,0,3.17c0.03,0.7-0.04,1.39,0,2.09C87.26,73.28,87.33,73.65,87.08,73.91z
		"/>
</g>
<g id="Sala_13" class="st0">
	<rect x="87.21" y="31.24" class="st3" width="30.74" height="42.88"/>
</g>
<g id="Sala_12_1_">
	<rect x="117.82" y="41.75" class="st4" width="62.97" height="32.36"/>
</g>
<g id="Sala_11" class="st0">
	<rect x="180.75" y="30.7" class="st5" width="29.02" height="43.4"/>
</g>
<g id="Sala_10" class="st0">
	<rect x="180.9" y="73.65" class="st6" width="28.89" height="72.47"/>
</g>
<g id="Sala_9_1_" class="st0">
	<rect x="209.64" y="9.87" class="st7" width="53.83" height="63.97"/>
</g>
<g id="Sala_8" class="st0">
	<rect x="263.47" y="31.21" class="st7" width="28.96" height="42.64"/>
</g>
<g id="Sala_7" class="st0">
	<rect x="292.43" y="42.29" class="st7" width="62.83" height="31.96"/>
</g>
<g id="Sala_6" class="st0">
	<rect x="355.26" y="31.65" class="st8" width="30.74" height="43"/>
</g>
<g id="Sala_5" class="st0">
	<path class="st8" d="M386.01,74.36c0.26,0.28,0.68,0.24,1.49,0.2c0.77-0.04,1.54,0.02,2.3-0.07c1.12-0.12,2.82-0.1,6.23-0.07
		c0.73,0.01,1.26,0.01,2.08-0.02c0.92-0.03,1.24-0.08,2.59-0.05c1.54,0.04,4.55,0.12,8.2,0.88c2.37,0.49,5.59,1.38,9.21,3.1
		c0,0,5.89,2.76,10.57,7.01c6.35,5.77,11.99,15.93,12.87,27.51c1.43,18.79-10.22,34.62-20.73,40.72c-4.69,2.72-9.21,3.91-9.21,3.91
		c-4.33,1.44-8.64,1.17-17.07,1.21c-2.92,0.02-4.37,0.02-4.86-0.05c-0.81-0.12-1.64-0.03-2.46-0.08c-0.47-0.03-0.87-0.07-1.15,0.19
		c-0.34,0.3-0.32,0.82-0.3,1.37c0.02,0.91-0.1,1.83,0,2.73c0.06,0.49-0.01,0.13,0,4.35c0.01,3.57,0.05,3.39,0.05,6.12
		c0,2.76-0.05,2.59-0.05,6.22c0,0,0,0,0,4.35c0,1.75,0,2.63,0,2.63c-0.02,0.54,0.01,1.08,0,1.62c-0.02,0.76-0.05,0.97,0.1,1.16
		c0.28,0.35,0.84,0.26,1.78,0.2c0.9-0.05,1.8,0.03,2.69,0c0.99-0.03,1.99-0.03,2.98-0.05c3.56-0.09,8.65,0.09,12.19,0
		c0,0,5.28-0.13,10.53-1.16c1.7-0.33,10.26-2.1,19.55-8.28c7.4-4.92,11.7-10.27,14.9-14.33c2.66-3.37,6.84-9.24,10.3-17.22
		c1.4-3.23,6.57-15.8,6.37-33.17c-0.04-3.47-0.78-33.39-19.87-53.87c-6.9-7.4-14.46-11.7-15.36-12.2c-2.75-1.54-8.37-4.62-16.26-6.2
		c-4.64-0.93-8.86-1.1-11.79-1.21c-5.26-0.21-8.59,0.04-12.06-0.13c-0.97-0.05-1.94,0.06-2.91,0.03c-1.52-0.04-2.48-0.17-2.85,0.37
		c-0.07,0.11-0.09,0.19-0.14,1.08c-0.07,1.32-0.07,1.69-0.07,1.69c0,1.27-0.01,1.9,0,2.97c0,0.72,0,1.44,0,2.16
		c0,2.29,0,4.58,0,6.88c0,1.66,0,3.33,0,4.99c0,1.96,0,3.91,0,5.87c0,2.11,0,3.17,0,3.17c-0.03,0.7,0.04,1.39,0,2.09
		C385.83,73.73,385.76,74.09,386.01,74.36z"/>
</g>
<g id="Sala_4" class="st0">
	<rect x="355.26" y="132.23" class="st8" width="30.6" height="69.84"/>
</g>
<g id="Sala_3" class="st0">
	<rect x="262.9" y="159.6" class="st9" width="92.36" height="30.07"/>
</g>
<g id="Sala_2" class="st0">
	<rect x="292.29" y="74.19" class="st10" width="62.7" height="85.28"/>
</g>
<g id="Sala_1" class="st0">
	<rect x="263.69" y="123.06" class="st5" width="28.89" height="23.6"/>
</g>
<g id="Planta">
	<line class="st11" x1="71.03" y1="74.11" x2="87.21" y2="74.11"/>
	<polyline class="st11" points="124.02,74.11 117.96,74.11 117.96,61.62 	"/>
	<line class="st11" x1="163.26" y1="74.11" x2="135.96" y2="74.11"/>
	<polyline class="st11" points="180.75,61.37 180.75,74.11 175.45,74.11 	"/>
	<polyline class="st11" points="117.96,52.4 117.96,41.75 180.75,41.75 180.75,52.27 	"/>
	<path class="st11" d="M68.2,188.99c-34.18,0-61.89-33.05-61.89-73.82S34.02,41.35,68.2,41.35"/>
	<path class="st11" d="M71.03,158.25c-21.67,0-39.24-18.83-39.24-42.07s17.57-42.07,39.24-42.07"/>
	<path class="st11" d="M210.99,146.19c2.73-10.78,12.04-18.98,23.46-20.15"/>
	<path class="st11" d="M229.84,178.54c-9.33-2.63-16.61-10.1-18.9-19.49"/>
	<path class="st11" d="M87.21,52.27"/>
	<polyline class="st11" points="117.96,61.37 117.96,74.11 87.21,74.11 87.21,61.37 	"/>
	<polyline class="st11" points="87.21,52.27 87.21,31.24 117.96,31.24 117.96,51.87 	"/>
	<polyline class="st11" points="209.67,61.27 209.67,74.01 180.85,74.11 180.85,61.37 	"/>
	<path class="st11" d="M209.78,61.37"/>
	<path class="st11" d="M209.78,52.27"/>
	<polyline class="st11" points="180.85,52.27 180.85,30.83 209.78,30.83 209.78,52.27 	"/>
	<line class="st11" x1="68.2" y1="41.35" x2="87.21" y2="41.35"/>
	<line class="st11" x1="70.6" y1="158.22" x2="86.78" y2="158.22"/>
	<rect x="86.81" y="131.55" class="st12" width="31.15" height="70.38"/>
	<path class="st11" d="M193.09,146.22"/>
	<polyline class="st11" points="193.09,146.22 180.75,146.22 180.75,74.11 210.06,74.11 210.06,146.22 199.93,146.22 	"/>
	<path class="st11" d="M209.78,52.27"/>
	<polyline class="st11" points="263.51,61.37 263.57,74.08 209.94,74.08 209.88,61.37 	"/>
	<polyline class="st11" points="209.78,52.27 209.78,9.67 263.3,9.67 263.3,52.27 	"/>
	<line class="st11" x1="209.78" y1="23.42" x2="231.75" y2="23.42"/>
	<line class="st11" x1="242.27" y1="23.55" x2="263.51" y2="23.62"/>
	<line class="st11" x1="68.1" y1="189.04" x2="87.11" y2="188.99"/>
	<path class="st11" d="M87.31,166.74"/>
	<polyline class="st11" points="118.06,179.08 118.06,201.53 87.31,201.53 87.31,179.08 	"/>
	<polyline class="st11" points="87.31,166.74 87.31,131.75 117.96,131.75 117.96,166.59 	"/>
	<line class="st11" x1="117.96" y1="74.11" x2="117.96" y2="131.55"/>
	<polyline class="st11" points="117.96,167 117.96,159.06 193.09,159.06 	"/>
	<polyline class="st11" points="193.09,189.13 118.06,189.13 118.06,179.08 	"/>
	<path class="st11" d="M193.09,189.13"/>
	<polyline class="st11" points="199.93,159.06 210.11,159.06 210.11,189.13 199.93,189.13 	"/>
	<line class="st11" x1="209.78" y1="189.13" x2="229.46" y2="189.1"/>
	<line class="st11" x1="229.46" y1="178.39" x2="229.46" y2="189.52"/>
	<line class="st11" x1="210.06" y1="146.22" x2="211.55" y2="146.18"/>
	<line class="st11" x1="210.06" y1="159.1" x2="211.41" y2="159.1"/>
	<line class="st11" x1="210.07" y1="123.06" x2="234.45" y2="123.06"/>
	<line class="st11" x1="234.45" y1="122.59" x2="234.45" y2="126.58"/>
	<line class="st11" x1="402.19" y1="74.63" x2="386.01" y2="74.63"/>
	<polyline class="st11" points="349.2,74.63 355.26,74.63 355.26,62.14 	"/>
	<line class="st11" x1="309.96" y1="74.23" x2="337.26" y2="74.23"/>
	<polyline class="st11" points="292.47,61.89 292.47,74.22 297.77,74.22 	"/>
	<polyline class="st11" points="355.26,52.92 355.26,42.27 292.47,42.27 292.47,52.79 	"/>
	<path class="st11" d="M405.02,189.51c34.18,0,61.89-33.05,61.89-73.82s-27.71-73.82-61.89-73.82"/>
	<path class="st11" d="M402.19,158.77c21.67,0,39.24-18.83,39.24-42.07s-17.57-42.07-39.24-42.07"/>
	<path class="st11" d="M262.23,146.7c-2.73-10.78-12.04-18.98-23.46-20.15"/>
	<path class="st11" d="M243.38,179.05c9.33-2.63,16.61-10.1,18.9-19.49"/>
	<path class="st11" d="M386.01,52.79"/>
	<polyline class="st11" points="355.26,61.89 355.26,74.63 386.01,74.63 386.01,61.89 	"/>
	<polyline class="st11" points="386.01,52.79 386.01,31.75 355.26,31.75 355.26,52.38 	"/>
	<polyline class="st11" points="263.54,61.79 263.54,74.12 292.37,74.22 292.37,61.89 	"/>
	<polyline class="st11" points="292.37,52.79 292.37,31.35 263.37,31.35 263.37,52.79 	"/>
	<line class="st11" x1="405.02" y1="41.87" x2="386.01" y2="41.87"/>
	<line class="st11" x1="402.62" y1="158.73" x2="386.44" y2="158.73"/>
	
		<rect x="355.26" y="132.07" transform="matrix(-1 -4.496948e-11 4.496948e-11 -1 741.6741 334.5193)" class="st12" width="31.15" height="70.38"/>
	<path class="st11" d="M280.13,146.73"/>
	<polyline class="st11" points="273.29,123.06 263.47,123.06 263.47,146.73 272.76,146.73 	"/>
	<path class="st11" d="M273.29,123.06"/>
	<polyline class="st11" points="279.75,146.73 292.47,146.73 292.47,123.06 280.13,123.06 	"/>
	<line class="st11" x1="405.12" y1="189.56" x2="386.11" y2="189.51"/>
	<path class="st11" d="M385.9,167.26"/>
	<polyline class="st11" points="355.16,179.6 355.16,202.05 385.9,202.05 385.9,179.6 	"/>
	<polyline class="st11" points="385.9,167.26 385.9,132.27 355.26,132.27 355.26,167.11 	"/>
	<line class="st11" x1="355.26" y1="74.63" x2="355.26" y2="132.07"/>
	<polyline class="st11" points="355.26,167.51 355.26,159.57 280.13,159.57 	"/>
	<polyline class="st11" points="280.13,189.64 355.16,189.64 355.16,179.6 	"/>
	<path class="st11" d="M280.13,189.64"/>
	<polyline class="st11" points="273.29,159.57 263.11,159.57 263.11,189.64 273.29,189.64 	"/>
	<line class="st11" x1="263.44" y1="189.64" x2="243.76" y2="189.61"/>
	<line class="st11" x1="243.76" y1="178.91" x2="243.76" y2="190.03"/>
	<line class="st11" x1="239" y1="122.73" x2="239" y2="126.72"/>
	<line class="st11" x1="263.37" y1="123.06" x2="238.89" y2="123.06"/>
	<line class="st11" x1="263.37" y1="123.06" x2="263.37" y2="74.52"/>
	<line class="st11" x1="263.47" y1="146.73" x2="261.79" y2="146.72"/>
	<line class="st11" x1="263.11" y1="159.57" x2="261.79" y2="159.6"/>
	<line class="st11" x1="292.47" y1="74.22" x2="292.47" y2="123.06"/>
</g>
</svg>
