<svg xmlns="http://www.w3.org/2000/svg" viewBox="0 0 168.68 145.26"><defs><style>.cls-1{fill:#bbbfbe;}.cls-2{fill:#666;}.cls-3{fill:#5b5e5d;}.cls-4{fill:none;stroke:#5b5e5d;stroke-miterlimit:10;stroke-width:4px;}</style></defs><g id="Layer_2" data-name="Layer 2"><rect class="cls-1" y="120.49" width="128.97" height="10"/></g><g id="Layer_3" data-name="Layer 3"><rect class="cls-1" y="99.55" width="128.97" height="10"/></g><g id="Layer_4" data-name="Layer 4"><rect class="cls-1" y="78.6" width="128.97" height="10"/></g><g id="Layer_5" data-name="Layer 5"><rect class="cls-1" y="57.66" width="128.97" height="10"/></g><g id="Layer_6" data-name="Layer 6"><rect class="cls-1" y="36.33" width="128.97" height="10"/></g><g id="Layer_7" data-name="Layer 7"><rect class="cls-1" y="15" width="128.97" height="10"/></g><g id="Layer_8" data-name="Layer 8"><polyline class="cls-2" points="9.82 15 9.82 0 19.82 0 19.82 15"/><line class="cls-3" x1="9.82" y1="78.6" x2="9.82" y2="46.33"/><line class="cls-3" x1="9.82" y1="120.49" x2="9.82" y2="88.6"/><polyline class="cls-3" points="19.82 107.39 19.82 120.49 9.82 120.49 9.82 107.39"/><line class="cls-3" x1="19.82" y1="88.6" x2="19.82" y2="120.49"/><line class="cls-3" x1="19.82" y1="46.33" x2="19.82" y2="78.6"/><rect class="cls-3" x="9.82" width="10" height="36.42"/><rect class="cls-3" x="29.64" y="109.55" width="10" height="35.71"/><rect class="cls-3" x="9.82" y="88.6" width="10" height="20.94"/><rect class="cls-3" x="9.82" y="46.14" width="10" height="32.47"/><polyline class="cls-3" points="19.82 130.49 19.82 145.26 9.82 145.26 9.82 130.49"/></g><g id="Layer_9" data-name="Layer 9"><polyline class="cls-3" points="29.64 15 29.64 0 39.64 0 39.64 15"/><polyline class="cls-3" points="29.64 99.55 29.64 67.66 39.64 67.66 39.64 99.55"/><polyline class="cls-3" points="29.64 57.85 29.64 25 39.64 25 39.64 57.85"/><polyline class="cls-3" points="49.46 145.26 49.46 130.49 59.46 130.49 59.46 145.26"/></g><g id="Layer_10" data-name="Layer 10"><polyline class="cls-3" points="49.46 36.42 49.46 0 59.46 0 59.46 36.42"/><polyline class="cls-3" points="49.46 78.6 49.46 46.08 59.46 46.08 59.46 78.6"/><polyline class="cls-3" points="49.46 120.91 49.46 88.61 59.46 88.61 59.46 120.91"/></g><g id="Layer_11" data-name="Layer 11"><polyline class="cls-3" points="69.39 15 69.39 0 79.39 0 79.39 15"/><polyline class="cls-3" points="69.39 36.33 69.39 25 79.39 25 79.39 36.33"/><polyline class="cls-3" points="69.39 99.55 69.39 67.66 79.39 67.66 79.39 99.55"/><polyline class="cls-3" points="69.39 145.26 69.39 130.49 79.39 130.49 79.39 145.26"/><polyline class="cls-3" points="89.33 78.61 89.33 46.08 99.33 46.08 99.33 78.61"/><polyline class="cls-3" points="89.33 120.54 89.33 88.61 99.33 88.61 99.33 120.54"/><polyline class="cls-3" points="89.33 145.26 89.33 130.5 99.33 130.5 99.33 145.26"/><polyline class="cls-3" points="69.39 57.85 69.39 36.42 79.39 36.42 79.39 57.85"/><polyline class="cls-3" points="69.39 134.67 69.39 109.46 79.39 109.46 79.39 134.67"/></g><g id="Layer_12" data-name="Layer 12"><polyline class="cls-3" points="89.33 36.42 89.33 0 99.33 0 99.33 36.42"/></g><g id="Layer_13" data-name="Layer 13"><polyline class="cls-3" points="109.15 15 109.15 0 119.15 0 119.15 15"/><polyline class="cls-3" points="109.15 99.55 109.15 67.66 119.15 67.66 119.15 99.55"/><polyline class="cls-3" points="109.15 145.26 109.15 109.55 119.15 109.55 119.15 145.26"/><polyline class="cls-3" points="109.15 57.8 109.15 25 119.15 25 119.15 57.8"/></g><g id="Layer_16" data-name="Layer 16"><path class="cls-4" d="M167.31,20.61A10.59,10.59,0,0,1,178,31.06a10.58,10.58,0,0,1-10.78,10.37" transform="translate(-11.34 -10.52)"/><path class="cls-4" d="M167.69,61.17c-6.18,0-11.17-4.47-11.15-9.93s5.05-9.86,11.23-9.83" transform="translate(-11.34 -10.52)"/><path class="cls-4" d="M167.27,104.19a10.24,10.24,0,1,1-.37,20.46" transform="translate(-11.34 -10.52)"/><path class="cls-4" d="M167.59,145.35a10.37,10.37,0,1,1-.12-20.73" transform="translate(-11.34 -10.52)"/><path class="cls-4" d="M166.93,61.15a10.61,10.61,0,1,1-.07,21.19" transform="translate(-11.34 -10.52)"/><circle class="cls-1" cx="155.94" cy="20" r="5"/><circle class="cls-1" cx="155.94" cy="41.42" r="5"/><circle class="cls-1" cx="155.94" cy="62.47" r="5"/><circle class="cls-1" cx="155.94" cy="83.6" r="5"/><circle class="cls-1" cx="155.94" cy="104.45" r="5"/><circle class="cls-1" cx="155.94" cy="125.49" r="5"/><path class="cls-4" d="M167.44,104.28c-5.42.08-9.88-4.76-10-10.81s4.23-11,9.65-11.11" transform="translate(-11.34 -10.52)"/></g></svg>