<?xml version="1.0" encoding="utf-8"?>
<!-- Generator: Adobe Illustrator 24.1.1, SVG Export Plug-In . SVG Version: 6.00 Build 0)  -->
<svg version="1.1" xmlns="http://www.w3.org/2000/svg" xmlns:xlink="http://www.w3.org/1999/xlink" x="0px" y="0px"
	 viewBox="0 0 149.13 230.56" style="enable-background:new 0 0 149.13 230.56;" xml:space="preserve">
<style type="text/css">
	.st0{display:none;}
	.st1{display:inline;fill:none;stroke:#000000;stroke-miterlimit:10;}
	.st2{display:inline;}
	.st3{fill:none;}
	.st4{opacity:0.56;fill:#F99F1D;}
	.st5{font-family:'MyriadPro';}
	.st6{font-size:160px;}
	.st7{fill:none;stroke:#000000;stroke-miterlimit:10;}
</style>
<g id="Layer_2" class="st0">
	<line class="st1" x1="47.64" y1="8.61" x2="91.32" y2="50.68"/>
	<line class="st1" x1="44.62" y1="48.66" x2="89.24" y2="90.95"/>
	<line class="st1" x1="44.07" y1="90.8" x2="88.39" y2="133.88"/>
	<line class="st1" x1="44.33" y1="134.55" x2="89.31" y2="177.44"/>
	<line class="st1" x1="45.68" y1="179.75" x2="89.29" y2="221.82"/>
	<path class="st1" d="M44.62,48.66c-9.88-13.48-8.24-31.49,3.67-40.22"/>
	<path class="st1" d="M44.62,91.43c-9.88-13.48-8.45-31.33,3.19-39.87"/>
	<path class="st1" d="M44.33,134.55c-9.88-13.48-8.24-31.49,3.67-40.22"/>
	<path class="st1" d="M45.68,179.75c-10.41-14.2-9.37-32.66,2.32-41.23"/>
	<path class="st1" d="M88.54,90.38c11.74-11.74,12.8-29.72,2.36-40.17"/>
	<path class="st1" d="M88.39,133.88c12.14-12.14,12.36-31.62,0.48-43.5"/>
	<path class="st1" d="M89.31,177.44c11.74-11.74,11.27-31.25-1.04-43.57"/>
	<path class="st1" d="M88.68,221.64c12.36-12.36,12.39-32.36,0.07-44.68"/>
	<g class="st2">
		<rect x="27.68" y="56.71" class="st3" width="111.61" height="155.67"/>
		<text transform="matrix(1 0 0 1 27.6831 170.312)" class="st4 st5 st6">S</text>
	</g>
</g>
<g id="Layer_4">
	<line class="st7" x1="88.94" y1="7.17" x2="45.25" y2="49.24"/>
	<line class="st7" x1="91.95" y1="47.22" x2="47.34" y2="89.52"/>
	<line class="st7" x1="92.5" y1="89.36" x2="48.19" y2="132.44"/>
	<line class="st7" x1="92.25" y1="133.11" x2="47.26" y2="176.01"/>
	<line class="st7" x1="90.9" y1="178.31" x2="47.28" y2="220.38"/>
	<path class="st7" d="M91.95,47.22c9.88-13.48,8.24-31.49-3.67-40.22"/>
	<path class="st7" d="M91.95,89.99c9.88-13.48,8.45-31.33-3.19-39.87"/>
	<path class="st7" d="M92.25,133.11c9.88-13.48,8.24-31.49-3.67-40.22"/>
	<path class="st7" d="M90.9,178.31c10.41-14.2,9.37-32.66-2.32-41.23"/>
	<path class="st7" d="M48.04,88.94C36.3,77.2,35.24,59.21,45.68,48.77"/>
	<path class="st7" d="M48.19,132.44c-12.14-12.14-12.36-31.62-0.48-43.5"/>
	<path class="st7" d="M47.26,176.01c-11.74-11.74-11.27-31.25,1.04-43.57"/>
	<path class="st7" d="M47.89,220.21c-12.36-12.36-12.39-32.36-0.07-44.68"/>
	<g>
		<rect x="37.52" y="35.17" class="st3" width="111.61" height="155.67"/>
		<text transform="matrix(1 0 0 1 37.52 148.7666)" class="st4 st5 st6">z</text>
	</g>
</g>
</svg>
